<mxfile host="app.diagrams.net" modified="2023-06-20T00:44:37.964Z" agent="Mozilla/5.0 (Macintosh; Intel Mac OS X 10_15_7) AppleWebKit/537.36 (KHTML, like Gecko) Chrome/114.0.0.0 Safari/537.36" etag="Q-DqFjcflbLbrNakNwMg" version="21.5.0" type="github">
  <diagram name="Page-1" id="SKl0-WKOuRpfZeT5LldT">
    <mxGraphModel dx="1036" dy="605" grid="1" gridSize="10" guides="1" tooltips="1" connect="1" arrows="1" fold="1" page="1" pageScale="0.5" pageWidth="850" pageHeight="1100" math="0" shadow="0">
      <root>
        <mxCell id="0" />
        <mxCell id="1" parent="0" />
        <mxCell id="7uNhpUi9tp5Z0DHDK2ld-2" value="" style="shape=parallelogram;perimeter=parallelogramPerimeter;whiteSpace=wrap;html=1;fixedSize=1;strokeWidth=3;" parent="1" vertex="1">
          <mxGeometry x="70" y="220" width="210" height="140" as="geometry" />
        </mxCell>
        <mxCell id="7uNhpUi9tp5Z0DHDK2ld-3" value="" style="endArrow=classic;html=1;rounded=0;entryX=0.571;entryY=0.429;entryDx=0;entryDy=0;entryPerimeter=0;strokeWidth=2;" parent="1" edge="1">
          <mxGeometry width="50" height="50" relative="1" as="geometry">
            <mxPoint x="403.01" y="139.97" as="sourcePoint" />
            <mxPoint x="210.00000000000006" y="270.0300000000001" as="targetPoint" />
          </mxGeometry>
        </mxCell>
        <mxCell id="7uNhpUi9tp5Z0DHDK2ld-4" value="" style="endArrow=classic;html=1;rounded=0;entryX=0.5;entryY=1;entryDx=0;entryDy=0;fillColor=#a20025;strokeColor=#6F0000;" parent="1" target="7uNhpUi9tp5Z0DHDK2ld-2" edge="1">
          <mxGeometry width="50" height="50" relative="1" as="geometry">
            <mxPoint x="70" y="360" as="sourcePoint" />
            <mxPoint x="120" y="310" as="targetPoint" />
          </mxGeometry>
        </mxCell>
        <mxCell id="7uNhpUi9tp5Z0DHDK2ld-5" value="" style="endArrow=classic;html=1;rounded=0;exitX=0;exitY=1;exitDx=0;exitDy=0;entryX=0;entryY=0.5;entryDx=0;entryDy=0;fillColor=#a20025;strokeColor=#6F0000;" parent="1" source="7uNhpUi9tp5Z0DHDK2ld-2" target="7uNhpUi9tp5Z0DHDK2ld-2" edge="1">
          <mxGeometry width="50" height="50" relative="1" as="geometry">
            <mxPoint x="170" y="340" as="sourcePoint" />
            <mxPoint x="220" y="290" as="targetPoint" />
          </mxGeometry>
        </mxCell>
        <mxCell id="7uNhpUi9tp5Z0DHDK2ld-6" value="&lt;font style=&quot;font-size: 16px;&quot;&gt;0&lt;/font&gt;" style="text;html=1;strokeColor=none;fillColor=none;align=center;verticalAlign=middle;whiteSpace=wrap;rounded=0;" parent="1" vertex="1">
          <mxGeometry x="30" y="340" width="60" height="30" as="geometry" />
        </mxCell>
        <mxCell id="7uNhpUi9tp5Z0DHDK2ld-7" value="&lt;font style=&quot;font-size: 16px;&quot;&gt;1&lt;/font&gt;" style="text;html=1;strokeColor=none;fillColor=none;align=center;verticalAlign=middle;whiteSpace=wrap;rounded=0;" parent="1" vertex="1">
          <mxGeometry x="250" y="340" width="60" height="30" as="geometry" />
        </mxCell>
        <mxCell id="7uNhpUi9tp5Z0DHDK2ld-8" value="&lt;font style=&quot;font-size: 16px;&quot;&gt;2&lt;/font&gt;" style="text;html=1;strokeColor=none;fillColor=none;align=center;verticalAlign=middle;whiteSpace=wrap;rounded=0;" parent="1" vertex="1">
          <mxGeometry x="50" y="190" width="60" height="30" as="geometry" />
        </mxCell>
        <mxCell id="7uNhpUi9tp5Z0DHDK2ld-10" value="" style="endArrow=none;html=1;rounded=0;entryX=0.479;entryY=0.987;entryDx=0;entryDy=0;entryPerimeter=0;strokeWidth=2;" parent="1" target="7uNhpUi9tp5Z0DHDK2ld-2" edge="1">
          <mxGeometry width="50" height="50" relative="1" as="geometry">
            <mxPoint x="80" y="290" as="sourcePoint" />
            <mxPoint x="130" y="240" as="targetPoint" />
            <Array as="points">
              <mxPoint x="180" y="290" />
            </Array>
          </mxGeometry>
        </mxCell>
        <mxCell id="7uNhpUi9tp5Z0DHDK2ld-11" value="&lt;font style=&quot;font-size: 16px;&quot;&gt;s&lt;/font&gt;" style="text;html=1;strokeColor=none;fillColor=none;align=center;verticalAlign=middle;whiteSpace=wrap;rounded=0;" parent="1" vertex="1">
          <mxGeometry x="160" y="270" width="35" height="25" as="geometry" />
        </mxCell>
        <mxCell id="7uNhpUi9tp5Z0DHDK2ld-12" value="" style="ellipse;whiteSpace=wrap;html=1;aspect=fixed;fillStyle=solid;fillColor=#f5f5f5;fontColor=#333333;strokeColor=#666666;" parent="7uNhpUi9tp5Z0DHDK2ld-11" vertex="1">
          <mxGeometry x="14.583333333333334" y="17.857142857142858" width="5.833333333333334" height="5.833333333333334" as="geometry" />
        </mxCell>
        <mxCell id="7uNhpUi9tp5Z0DHDK2ld-19" value="&lt;font style=&quot;font-size: 16px;&quot; color=&quot;#ff0000&quot;&gt;u&lt;/font&gt;" style="text;html=1;strokeColor=none;fillColor=none;align=center;verticalAlign=middle;whiteSpace=wrap;rounded=0;" parent="1" vertex="1">
          <mxGeometry x="30" y="290" width="50" height="35" as="geometry" />
        </mxCell>
        <mxCell id="7uNhpUi9tp5Z0DHDK2ld-20" value="&lt;font style=&quot;font-size: 16px;&quot; color=&quot;#ff0000&quot;&gt;v&lt;/font&gt;" style="text;html=1;strokeColor=none;fillColor=none;align=center;verticalAlign=middle;whiteSpace=wrap;rounded=0;" parent="1" vertex="1">
          <mxGeometry x="120" y="370" width="60" height="30" as="geometry" />
        </mxCell>
        <mxCell id="7uNhpUi9tp5Z0DHDK2ld-21" value="&lt;font style=&quot;font-size: 15px;&quot;&gt;O&lt;/font&gt;" style="text;html=1;strokeColor=none;fillColor=none;align=center;verticalAlign=middle;whiteSpace=wrap;rounded=0;" parent="1" vertex="1">
          <mxGeometry x="350" y="120" width="60" height="30" as="geometry" />
        </mxCell>
        <mxCell id="7uNhpUi9tp5Z0DHDK2ld-22" value="&lt;font style=&quot;font-size: 15px;&quot;&gt;D&lt;/font&gt;" style="text;html=1;strokeColor=none;fillColor=none;align=center;verticalAlign=middle;whiteSpace=wrap;rounded=0;" parent="1" vertex="1">
          <mxGeometry x="260" y="170" width="60" height="30" as="geometry" />
        </mxCell>
      </root>
    </mxGraphModel>
  </diagram>
</mxfile>
